<svg width="530" height="541" viewBox="0 0 530 541" fill="none" xmlns="http://www.w3.org/2000/svg">
<path d="M369.949 100.923C361.166 85.5479 329.944 55.0449 311.854 47.969C291.781 40.1173 273.256 35.778 258.447 33.8313C235.191 30.7752 227.425 30.956 207.56 37.0629C176.855 46.5033 152.956 66.2618 152.956 66.2618L138.832 48.9573C138.832 48.9573 162.917 29.0374 183.06 20.6151C192.997 16.4601 209.033 9.78447 228.511 9.77218C256.37 9.75462 264.207 12.5334 277.673 16.9692C310.661 27.8385 328.882 46.1277 342.985 60.5498C361.688 79.676 368.019 97.0863 369.949 100.923Z" fill="#023E7D"/>
<path d="M265.39 330.197C280.825 322.132 270.578 324.282 266.058 324.636C260.662 325.058 251.655 326.108 237.332 325.755C222.818 325.398 207.976 320.783 194.64 316.9C181.305 313.016 171.558 305.738 166.687 304.929C166.687 304.929 180.487 316.005 193.507 322.801C204.771 328.68 218.155 332.355 220.279 332.734C228.556 334.214 236.67 335.237 247.173 334.149C252.371 333.611 261.981 331.978 265.39 330.197Z" fill="#023E7D"/>
<path d="M366.3 56.7407C373.895 64.4731 381.19 74.1524 385.32 81.0391C389.451 87.9256 394.233 99.0569 395.03 104.269C396.695 109.904 400.835 114.368 402.274 112.348C403.291 110.92 403.85 107.446 403.981 104.947C404.241 99.9628 398.204 88.6519 395.092 83.1824C389.909 74.0727 377.129 59.372 365.133 48.8749C349.054 34.8073 334.796 26.4676 328.104 22.3495C326.997 21.6684 325.405 21.3735 325.773 21.8036C326.566 22.7304 331.33 25.7163 333.449 27.3014C345.045 35.9817 357.235 47.5127 366.3 56.7407Z" fill="#33415C"/>
<path d="M287.38 499.747C294.111 498.009 306.423 493.663 308.236 489.275C310.049 484.888 309.792 478.916 308.957 475.681C308.351 473.332 307.728 470.461 299.639 464.273C291.55 458.087 300.878 475.962 299.639 480.017C298.578 483.487 297.126 488.213 293.008 489.275C293.008 489.275 216.947 505.357 208.252 507.711C196.501 510.892 185.309 512.391 186.737 517.322C188.165 522.253 200.119 522.265 213.582 518.791L287.38 499.747Z" fill="#33415C"/>
<path d="M287.609 468.949C294.34 467.211 306.652 462.863 308.465 458.477C310.278 454.09 310.021 448.116 309.186 444.883C308.58 442.534 307.957 439.662 299.868 433.475C291.779 427.289 301.107 445.164 299.868 449.217C298.807 452.689 297.355 457.415 293.237 458.477C293.237 458.477 217.176 474.559 208.481 476.913C196.73 480.092 185.538 481.593 186.966 486.524C188.395 491.455 200.348 491.467 213.811 487.993L287.609 468.949Z" fill="#33415C"/>
<path d="M287.38 438.042C294.111 436.304 306.423 431.958 308.236 427.571C310.049 423.184 309.583 418.212 308.531 414.552C308.17 413.298 307.684 412.443 307.213 411.778C304.569 408.044 304.981 408.101 299.639 402.569C292.554 395.232 300.878 414.258 299.639 418.311C298.578 421.783 297.126 426.508 293.008 427.571C293.008 427.571 216.947 443.652 208.252 446.006C196.501 449.187 185.309 450.686 186.737 455.617C188.165 460.548 200.119 460.56 213.582 457.086L287.38 438.042Z" fill="#33415C"/>
<path d="M184.562 402.262H287.49L312.399 391.946H184.896L186.341 347.415C142.476 331.074 106.903 299.159 86.0828 257.226C64.9727 214.753 60.809 166.985 74.375 121.835C76.2418 115.621 78.1087 109.408 80.804 103.444C91.7935 77.3902 108.195 54.636 129.538 36.2099C128.548 34.9881 125.647 31.6196 124.459 30.3013C102.038 49.3067 84.9597 73.0779 73.597 100.375C71.3159 106.464 68.7859 113.381 66.9189 119.594C52.8543 166.402 56.8109 216.365 78.7903 260.454C92.4309 287.843 124.973 317.207 143.584 347.415C148.142 354.813 159.584 368.739 164.43 395.216C171.261 432.532 171.896 484.437 181.777 488.093L184.562 402.262Z" fill="#023E7D"/>
<path d="M155.938 326.78L159.215 320.691C121.966 302.795 93.2593 271.875 78.3288 233.333C63.187 194.294 63.3695 151.963 78.9291 113.36C81.0705 108.048 83.2117 102.735 86.0612 97.7085C97.819 75.6876 113.964 57.0812 134.211 42.5994L130.326 36.9172C109.085 51.8221 92.1579 71.3471 79.9718 94.4307C77.4766 99.6003 74.6955 105.478 72.5543 110.791C56.423 150.81 55.8823 195.055 71.6577 235.584C87.2222 275.617 117.271 308.313 155.938 326.78Z" fill="#33415C"/>
<path d="M219.087 359.381C234.621 363.711 250.422 365.54 266.204 364.359C284.2 362.936 301.889 357.994 317.965 349.598C339.533 338.44 357.542 321.569 370.53 301.151L367.279 298.957C354.401 318.976 337.012 335.162 315.954 346.033C299.989 354.031 283.208 358.796 265.61 360.33C250.625 361.733 235.222 360.015 220.087 355.796L219.087 359.381Z" fill="#979DAC"/>
<path d="M320.842 348.151C349.129 331.538 372.32 307.777 388.274 279.644L375.127 272.164C360.289 298.066 338.998 319.837 313.275 335.093L320.842 348.151Z" fill="#979DAC"/>
<path d="M364.484 313.35C399.738 275.209 401.418 241.885 412.704 191.937C414.134 185.603 415.36 162.185 413.901 168.513C403.285 214.567 387.812 263.816 355.821 298.726C361.82 316.61 364.484 313.35 364.484 313.35Z" fill="#023E7D"/>
<path d="M429.717 156.823C427.394 146.584 419.834 141.536 409.536 141.536H376.459V244.22H409.536C425.202 244.22 430.714 231.006 430.714 214.654V168.806C430.714 164.374 430.586 160.949 429.717 156.823ZM394.04 229.937V153.523H405.764C413.018 153.523 413.769 160.248 413.769 168.806V214.654C413.769 223.212 413.018 229.937 405.764 229.937H394.04Z" fill="#979DAC" stroke="#33415C" stroke-width="3" stroke-linecap="round" stroke-linejoin="round"/>
<path d="M352.723 196.87L337.288 203.823C341.489 208.669 348.05 216.941 348.05 222.919C348.05 229.542 344.011 233.258 339.003 233.258C333.833 233.258 329.956 229.866 329.956 222.919V212.418H309.6V224.211C309.6 240.367 322.686 247.807 339.003 247.807C355.159 247.807 368.891 240.528 368.891 224.211C368.891 216.588 360.801 206.078 352.723 196.87Z" fill="#979DAC" stroke="#33415C" stroke-width="3" stroke-linecap="round" stroke-linejoin="round"/>
<path d="M370.143 169.226V161.31C370.143 146.285 358.026 137.213 340.901 137.213C323.615 137.213 311.336 145.962 311.336 161.31C311.336 176.82 318.621 180.881 326.463 190.01C338.572 185.077 336.207 186.257 343.954 183.273C340.132 178.075 337.508 175.043 337.508 175.043C332.823 169.711 331.854 165.995 331.854 161.149C331.854 155.979 335.731 152.263 340.901 152.263C345.748 152.263 349.948 156.625 349.948 164.541V169.226H370.143Z" fill="#979DAC" stroke="#33415C" stroke-width="3" stroke-linecap="round" stroke-linejoin="round"/>
<path d="M137.694 183.652L135.939 195.118L124.193 197.187L135.939 199.794L137.694 210.688L139.882 199.794L151.195 197.187L139.882 195.118L137.694 183.652Z" fill="#33415C"/>
<path d="M97.3921 160.19V143.097H53V251.244H70.3443V198.788H93.2391V185.12H70.3443V160.19H97.3921Z" fill="#979DAC"/>
<path d="M236.437 172.009V163.725C236.437 153.031 227.852 140.077 208.873 140.077C188.088 140.077 182.514 153.031 182.514 163.725V189.034H199.384V163.725C199.384 160.562 202.246 155.14 208.873 155.14C214.296 155.14 217.459 160.562 217.459 163.725V172.009H236.437Z" fill="#979DAC"/>
<path d="M236.437 219.312V227.596C236.437 238.29 227.852 251.244 208.873 251.244C188.088 251.244 182.514 238.29 182.514 227.596V205.654H199.384V227.596C199.384 230.759 202.246 236.181 208.873 236.181C214.296 236.181 217.459 230.759 217.459 227.596V219.312H236.437Z" fill="#979DAC"/>
<path d="M282.397 174.263V225.145C282.397 228.343 279.351 233.827 273.867 233.827C267.165 233.827 264.271 228.343 264.271 225.145V141.064L247.732 140.912V225.145C247.732 235.959 252.999 249.059 273.867 249.059C292.907 249.059 298.436 236.112 298.436 225.297V174.263H282.397Z" fill="#979DAC"/>
<path d="M118.079 171.052C120.98 162.842 128.694 157.039 137.895 157.039C147.024 157.039 154.809 162.842 157.711 171.052H172.219C169.034 155.128 154.88 143.097 137.966 143.097C121.051 143.097 106.897 155.128 103.712 171.052H118.079Z" fill="#979DAC"/>
<path d="M157.782 223.289C154.88 231.498 147.166 237.302 137.966 237.302C128.836 237.302 121.051 231.498 118.15 223.289H103.712C106.897 239.212 121.051 251.244 137.966 251.244C154.88 251.244 169.034 239.212 172.219 223.289H157.782Z" fill="#979DAC"/>
<path d="M173.312 177.742H157.741V216.06H173.312V177.742Z" fill="#979DAC"/>
<path d="M117.347 177.742H102.474V216.06H117.347V177.742Z" fill="#979DAC"/>
<path d="M298.436 152.466V140.912H282.196V152.466H298.436Z" fill="#979DAC"/>
<path d="M170.359 72.8199C184.046 63.7586 199.168 57.2427 215.218 53.5599C226.109 51.4447 236.955 51.034 247.866 51.9292C254.97 52.6226 262.361 53.8232 269.531 55.8226C284.666 60.0407 298.626 66.9376 310.901 76.7972L329.89 53.3317C314.873 40.9897 297.152 32.1865 278.034 26.8572C269.271 24.4155 259.888 22.6584 250.682 21.8088C237.159 21.0434 223.303 21.4753 209.689 24.1188C189.212 28.2826 170.348 35.9026 153.272 47.8831L170.359 72.8199Z" fill="#979DAC"/>
<path d="M327.995 34.8564L330.802 31.9056C317.388 22.7391 303.28 15.521 288.088 10.1109C272.897 4.69912 257.013 1.23754 241.213 0L240.744 3.78283C256.154 4.88169 271.649 8.20636 286.451 13.4777C301.252 18.7491 315.36 25.9672 327.995 34.8564Z" fill="#979DAC"/>
</svg>
