<svg width="3099" height="2582" viewBox="0 0 3099 2582" fill="none" xmlns="http://www.w3.org/2000/svg">
<path d="M3080.93 1306.71C3086.39 1345.41 3066.14 1348.66 3039.88 1348.59C2830.75 1347.98 2621.61 1348.36 2412.48 1347.59C2393.3 1347.52 2365.87 1358.49 2363.99 1320.36C2362.25 1284.98 2381.11 1255.89 2411.69 1251.77C2428.58 1249.49 2445.92 1250.6 2463.05 1250.73C2480.52 1250.86 2494.18 1249.28 2506.05 1230C2522.63 1203.09 2650.32 1208.52 2667.17 1235.78C2676.01 1250.09 2686.41 1250.63 2698.95 1250.62C2766.37 1250.6 2833.8 1249.99 2901.22 1250.68C2921.9 1250.89 2931.68 1244.22 2934.74 1220.76C2949.07 1110.98 2965.03 1001.44 2980.62 891.854C2982.88 875.988 2976.97 864.636 2967.29 852.923C2942.95 823.47 2939.4 789.935 2956.83 755.571C2964.06 741.294 2964.44 729.212 2958.78 714.62C2921.94 619.661 2885.59 524.49 2849.23 429.324C2843.39 414.061 2835.7 402.789 2818.75 398.622C2796.48 393.147 2784.21 371.895 2767.96 357.019C2757 346.985 2749.14 332.651 2734.76 328.807C2719.08 335.517 2718.88 350.16 2715.44 362.492C2688.72 458.548 2662.2 554.668 2635.66 650.782C2624.64 690.676 2614.34 696.495 2579.25 677.391C2522.94 646.733 2474.7 603.942 2428.02 559.325C2351.61 486.293 2278.55 409.887 2219 320.337C2213.09 311.454 2207.37 302.377 2202.26 292.963C2173.93 240.703 2177.98 230.817 2233.15 212.828C2311.68 187.221 2389.38 158.295 2468.83 136.456C2515.94 123.508 2549.16 92.7068 2574.4 55.1747C2605.6 8.77527 2652.65 14.3675 2693.98 0.75275C2705.5 -3.04126 2714.95 8.3122 2723.17 16.8066C2754.22 48.8964 2785.16 81.1174 2816.17 113.25C2830.22 127.807 2831.41 141.629 2827.91 164.141C2822.3 200.247 2806.74 242.583 2848.52 272.503C2878 293.62 2896.31 323.387 2890.56 365.073C2889.07 375.85 2895.34 388.349 2899.58 399.403C2935.6 493.405 2972.34 587.101 3007.95 681.276C3015.67 701.7 3026.16 714.281 3046.98 722.018C3098.32 741.094 3118.43 819.176 3075.99 850.587C3034.85 881.036 3033.64 921.221 3027.64 962.727C3015.75 1044.93 3006.23 1127.51 2994.41 1209.73C2990.56 1236.48 2994.4 1251.45 3024.16 1251.14C3056.4 1250.8 3073.66 1271.84 3080.93 1306.71ZM2478.58 462.302C2446.79 428.187 2415.88 393.047 2380.02 363.492C2354.62 396.086 2355.01 436.368 2378.66 468.117C2402.54 500.168 2446.7 513.517 2477.04 499.015C2496.06 489.922 2493.3 479.036 2478.58 462.302Z" fill="#C9C9C9"/>
<rect width="1173.47" height="2393.03" transform="matrix(0.226186 0.974084 -0.973853 0.227177 2376.32 506)" fill="url(#paint0_linear_1_8)" fill-opacity="0.15"/>
<rect width="1173.65" height="2377.53" transform="matrix(0.0244526 0.999701 -0.99969 0.0248985 2376.79 506.056)" fill="url(#paint1_linear_1_8)" fill-opacity="0.15"/>
<rect width="1173.16" height="2378.51" transform="matrix(0.424551 0.905404 -0.904796 0.425846 2376.85 506.063)" fill="url(#paint2_linear_1_8)" fill-opacity="0.15"/>
<defs>
<linearGradient id="paint0_linear_1_8" x1="0" y1="1196.52" x2="1173.47" y2="1196.52" gradientUnits="userSpaceOnUse">
<stop stop-color="white"/>
<stop offset="1" stop-color="white" stop-opacity="0"/>
</linearGradient>
<linearGradient id="paint1_linear_1_8" x1="0" y1="1188.77" x2="1173.65" y2="1188.77" gradientUnits="userSpaceOnUse">
<stop stop-color="white"/>
<stop offset="1" stop-color="white" stop-opacity="0"/>
</linearGradient>
<linearGradient id="paint2_linear_1_8" x1="0" y1="1189.26" x2="1173.16" y2="1189.26" gradientUnits="userSpaceOnUse">
<stop stop-color="white"/>
<stop offset="1" stop-color="white" stop-opacity="0"/>
</linearGradient>
</defs>
</svg>
