<svg width="2875" height="2294" viewBox="0 0 2875 2294" fill="none" xmlns="http://www.w3.org/2000/svg">
<rect width="1173.47" height="2393.03" transform="matrix(0.226186 0.974084 -0.973853 0.227177 2376.32 218)" fill="url(#paint0_linear_1_8)" fill-opacity="0.15"/>
<rect width="1173.65" height="2377.53" transform="matrix(0.0244526 0.999701 -0.99969 0.0248985 2376.79 218.056)" fill="url(#paint1_linear_1_8)" fill-opacity="0.15"/>
<rect width="1173.16" height="2378.51" transform="matrix(0.424551 0.905404 -0.904796 0.425846 2376.85 218.063)" fill="url(#paint2_linear_1_8)" fill-opacity="0.15"/>
<path d="M2694.2 589.574C2696.66 607.032 2687.53 608.501 2675.68 608.467C2581.33 608.193 2486.98 608.365 2392.63 608.016C2383.97 607.984 2371.6 612.933 2370.75 595.733C2369.97 579.768 2378.48 566.644 2392.27 564.783C2399.89 563.755 2407.71 564.257 2415.44 564.315C2423.32 564.374 2429.48 563.658 2434.84 554.96C2442.32 542.821 2499.93 545.268 2507.53 557.568C2511.52 564.027 2516.21 564.269 2521.87 564.266C2552.29 564.254 2582.71 563.978 2613.12 564.291C2622.45 564.387 2626.86 561.376 2628.24 550.792C2634.71 501.262 2641.91 451.84 2648.94 402.394C2649.96 395.235 2647.3 390.113 2642.93 384.829C2631.95 371.54 2630.35 356.409 2638.21 340.905C2641.47 334.463 2641.64 329.012 2639.09 322.428C2622.47 279.584 2606.07 236.643 2589.67 193.706C2587.03 186.82 2583.56 181.734 2575.92 179.853C2565.87 177.383 2560.33 167.795 2553 161.083C2548.06 156.555 2544.51 150.088 2538.02 148.354C2530.95 151.381 2530.86 157.988 2529.31 163.552C2517.25 206.892 2505.29 250.26 2493.31 293.625C2488.34 311.625 2483.7 314.25 2467.87 305.631C2442.46 291.798 2420.7 272.491 2399.64 252.361C2365.16 219.409 2332.2 184.936 2305.34 144.532C2302.67 140.524 2300.09 136.429 2297.79 132.182C2285.01 108.602 2286.83 104.142 2311.72 96.0254C2347.15 84.4718 2382.21 71.4206 2418.05 61.5672C2439.3 55.7253 2454.29 41.8282 2465.68 24.8941C2479.75 3.9593 2500.98 6.48242 2519.63 0.339632C2524.82 -1.37218 2529.09 3.75037 2532.8 7.58292C2546.81 22.0615 2560.76 36.5992 2574.75 51.097C2581.09 57.6648 2581.63 63.9012 2580.05 74.0582C2577.52 90.3491 2570.5 109.451 2589.35 122.95C2602.65 132.478 2610.91 145.908 2608.31 164.716C2607.64 169.579 2610.47 175.219 2612.38 180.206C2628.63 222.619 2645.21 264.893 2661.27 307.384C2664.76 316.599 2669.49 322.275 2678.88 325.766C2702.05 334.373 2711.12 369.602 2691.97 383.775C2673.41 397.513 2672.86 415.644 2670.15 434.371C2664.79 471.46 2660.5 508.72 2655.16 545.814C2653.43 557.883 2655.16 564.637 2668.59 564.497C2683.13 564.346 2690.92 573.839 2694.2 589.574ZM2422.45 208.585C2408.11 193.193 2394.16 177.338 2377.98 164.003C2366.52 178.709 2366.7 196.884 2377.37 211.209C2388.14 225.67 2408.07 231.693 2421.75 225.15C2430.33 221.047 2429.09 216.135 2422.45 208.585Z" fill="#C9C9C9"/>
<defs>
<linearGradient id="paint0_linear_1_8" x1="0" y1="1196.52" x2="1173.47" y2="1196.52" gradientUnits="userSpaceOnUse">
<stop stop-color="white"/>
<stop offset="1" stop-color="white" stop-opacity="0"/>
</linearGradient>
<linearGradient id="paint1_linear_1_8" x1="0" y1="1188.77" x2="1173.65" y2="1188.77" gradientUnits="userSpaceOnUse">
<stop stop-color="white"/>
<stop offset="1" stop-color="white" stop-opacity="0"/>
</linearGradient>
<linearGradient id="paint2_linear_1_8" x1="0" y1="1189.26" x2="1173.16" y2="1189.26" gradientUnits="userSpaceOnUse">
<stop stop-color="white"/>
<stop offset="1" stop-color="white" stop-opacity="0"/>
</linearGradient>
</defs>
</svg>
