<svg width="380" height="522" viewBox="0 0 380 522" fill="none" xmlns="http://www.w3.org/2000/svg">
<path d="M316.949 100.923C308.166 85.5479 276.944 55.0449 258.854 47.969C238.781 40.1173 220.256 35.778 205.447 33.8313C182.191 30.7752 174.425 30.956 154.56 37.0629C123.855 46.5033 99.956 66.2618 99.956 66.2618L85.8315 48.9573C85.8315 48.9573 109.917 29.0374 130.06 20.6151C139.997 16.4601 156.033 9.78447 175.511 9.77218C203.37 9.75462 211.207 12.5334 224.673 16.9692C257.661 27.8385 275.882 46.1277 289.985 60.5498C308.688 79.676 315.019 97.0863 316.949 100.923Z" fill="#023E7D"/>
<path d="M212.39 330.197C227.825 322.132 217.578 324.282 213.058 324.636C207.662 325.058 198.655 326.108 184.332 325.755C169.818 325.398 154.976 320.783 141.64 316.9C128.305 313.016 118.558 305.738 113.687 304.929C113.687 304.929 127.487 316.005 140.507 322.801C151.771 328.68 165.155 332.355 167.279 332.734C175.556 334.214 183.67 335.237 194.173 334.149C199.371 333.611 208.981 331.978 212.39 330.197Z" fill="#023E7D"/>
<path d="M313.3 56.7407C320.895 64.4731 328.19 74.1524 332.32 81.0391C336.451 87.9256 341.233 99.0569 342.03 104.269C343.695 109.904 347.835 114.368 349.274 112.348C350.291 110.92 350.85 107.446 350.981 104.947C351.241 99.9628 345.204 88.6519 342.092 83.1824C336.909 74.0727 324.129 59.372 312.133 48.8749C296.054 34.8073 281.796 26.4676 275.104 22.3495C273.997 21.6684 272.405 21.3735 272.773 21.8036C273.566 22.7304 278.33 25.7163 280.449 27.3014C292.045 35.9817 304.235 47.5127 313.3 56.7407Z" fill="#33415C"/>
<path d="M234.38 499.747C241.111 498.009 253.423 493.663 255.236 489.275C257.049 484.888 256.792 478.916 255.957 475.681C255.351 473.332 254.728 470.461 246.639 464.273C238.55 458.087 247.878 475.962 246.639 480.017C245.578 483.487 244.126 488.213 240.008 489.275C240.008 489.275 163.947 505.357 155.252 507.711C143.501 510.892 132.309 512.391 133.737 517.322C135.165 522.253 147.119 522.265 160.582 518.791L234.38 499.747Z" fill="#33415C"/>
<path d="M234.609 468.949C241.34 467.211 253.652 462.863 255.465 458.477C257.278 454.09 257.021 448.116 256.186 444.883C255.58 442.534 254.957 439.662 246.868 433.475C238.779 427.289 248.107 445.164 246.868 449.217C245.807 452.689 244.355 457.415 240.237 458.477C240.237 458.477 164.176 474.559 155.481 476.913C143.73 480.092 132.538 481.593 133.966 486.524C135.395 491.455 147.348 491.467 160.811 487.993L234.609 468.949Z" fill="#33415C"/>
<path d="M234.38 438.042C241.111 436.304 253.423 431.958 255.236 427.571C257.049 423.184 256.583 418.212 255.531 414.552C255.17 413.298 254.684 412.443 254.213 411.778C251.569 408.044 251.981 408.101 246.639 402.569C239.554 395.232 247.878 414.258 246.639 418.311C245.578 421.783 244.126 426.508 240.008 427.571C240.008 427.571 163.947 443.652 155.252 446.006C143.501 449.187 132.309 450.686 133.737 455.617C135.165 460.548 147.119 460.56 160.582 457.086L234.38 438.042Z" fill="#33415C"/>
<path d="M131.562 402.262H234.49L259.399 391.946H131.896L133.341 347.415C89.476 331.074 53.9032 299.159 33.0828 257.226C11.9727 214.753 7.80896 166.985 21.375 121.835C23.2418 115.621 25.1087 109.408 27.804 103.444C38.7935 77.3902 55.1947 54.636 76.5379 36.2099C75.5475 34.9881 72.6475 31.6196 71.4585 30.3013C49.0381 49.3067 31.9597 73.0779 20.597 100.375C18.3159 106.464 15.7859 113.381 13.9189 119.594C-0.145684 166.402 3.81093 216.365 25.7903 260.454C39.4309 287.843 71.9725 317.207 90.5842 347.415C95.1422 354.813 106.584 368.739 111.43 395.216C118.261 432.532 118.896 484.437 128.777 488.093L131.562 402.262Z" fill="#023E7D"/>
<path d="M102.938 326.78L106.215 320.691C68.9657 302.795 40.2593 271.875 25.3288 233.333C10.187 194.294 10.3695 151.963 25.9291 113.36C28.0705 108.048 30.2117 102.735 33.0612 97.7085C44.819 75.6876 60.9639 57.0812 81.2105 42.5994L77.3257 36.9172C56.0852 51.8221 39.1579 71.3471 26.9718 94.4307C24.4766 99.6003 21.6955 105.478 19.5543 110.791C3.42298 150.81 2.88232 195.055 18.6577 235.584C34.2222 275.617 64.2714 308.313 102.938 326.78Z" fill="#33415C"/>
<path d="M166.087 359.381C181.621 363.711 197.422 365.54 213.204 364.359C231.2 362.936 248.889 357.994 264.965 349.598C286.533 338.44 304.542 321.569 317.53 301.151L314.279 298.957C301.401 318.976 284.012 335.162 262.954 346.033C246.989 354.031 230.208 358.796 212.61 360.33C197.625 361.733 182.222 360.015 167.087 355.796L166.087 359.381Z" fill="#979DAC"/>
<path d="M267.842 348.151C296.129 331.538 319.32 307.777 335.274 279.644L322.127 272.164C307.289 298.066 285.998 319.837 260.275 335.093L267.842 348.151Z" fill="#979DAC"/>
<path d="M311.484 313.35C346.738 275.209 348.418 241.885 359.704 191.937C361.134 185.603 362.36 162.185 360.901 168.513C350.285 214.567 334.812 263.816 302.821 298.726C308.82 316.61 311.484 313.35 311.484 313.35Z" fill="#023E7D"/>
<path d="M376.717 156.823C374.394 146.584 366.834 141.536 356.536 141.536H323.459V244.22H356.536C372.202 244.22 377.714 231.006 377.714 214.654V168.806C377.714 164.374 377.586 160.949 376.717 156.823ZM341.04 229.937V153.523H352.764C360.018 153.523 360.769 160.248 360.769 168.806V214.654C360.769 223.212 360.018 229.937 352.764 229.937H341.04Z" fill="#979DAC" stroke="#33415C" stroke-width="3" stroke-linecap="round" stroke-linejoin="round"/>
<path d="M299.723 196.87L284.288 203.823C288.489 208.669 295.05 216.941 295.05 222.919C295.05 229.542 291.011 233.258 286.003 233.258C280.833 233.258 276.956 229.866 276.956 222.919V212.418H256.6V224.211C256.6 240.367 269.686 247.807 286.003 247.807C302.159 247.807 315.891 240.528 315.891 224.211C315.891 216.588 307.801 206.078 299.723 196.87Z" fill="#979DAC" stroke="#33415C" stroke-width="3" stroke-linecap="round" stroke-linejoin="round"/>
<path d="M317.143 169.226V161.31C317.143 146.285 305.026 137.213 287.901 137.213C270.615 137.213 258.336 145.962 258.336 161.31C258.336 176.82 265.621 180.881 273.463 190.01C285.572 185.077 283.207 186.257 290.954 183.273C287.132 178.075 284.508 175.043 284.508 175.043C279.823 169.711 278.854 165.995 278.854 161.149C278.854 155.979 282.731 152.263 287.901 152.263C292.748 152.263 296.948 156.625 296.948 164.541V169.226H317.143Z" fill="#979DAC" stroke="#33415C" stroke-width="3" stroke-linecap="round" stroke-linejoin="round"/>
<path d="M84.6942 183.652L82.9387 195.118L71.1931 197.187L82.9387 199.794L84.6942 210.688L86.8817 199.794L98.1955 197.187L86.8817 195.118L84.6942 183.652Z" fill="#33415C"/>
<path d="M44.3921 160.19V143.097H3.05176e-05V251.244H17.3443V198.788H40.2391V185.12H17.3443V160.19H44.3921Z" fill="#979DAC"/>
<path d="M183.437 172.009V163.725C183.437 153.031 174.852 140.077 155.873 140.077C135.088 140.077 129.514 153.031 129.514 163.725V189.034H146.384V163.725C146.384 160.562 149.246 155.14 155.873 155.14C161.296 155.14 164.459 160.562 164.459 163.725V172.009H183.437Z" fill="#979DAC"/>
<path d="M183.437 219.312V227.596C183.437 238.29 174.852 251.244 155.873 251.244C135.088 251.244 129.514 238.29 129.514 227.596V205.654H146.384V227.596C146.384 230.759 149.246 236.181 155.873 236.181C161.296 236.181 164.459 230.759 164.459 227.596V219.312H183.437Z" fill="#979DAC"/>
<path d="M229.397 174.263V225.145C229.397 228.343 226.351 233.827 220.867 233.827C214.165 233.827 211.271 228.343 211.271 225.145V141.064L194.732 140.912V225.145C194.732 235.959 199.999 249.059 220.867 249.059C239.907 249.059 245.436 236.112 245.436 225.297V174.263H229.397Z" fill="#979DAC"/>
<path d="M65.0788 171.052C67.9804 162.842 75.6944 157.039 84.8948 157.039C94.0244 157.039 101.809 162.842 104.711 171.052H119.219C116.034 155.128 101.88 143.097 84.9656 143.097C68.0512 143.097 53.8969 155.128 50.7122 171.052H65.0788Z" fill="#979DAC"/>
<path d="M104.782 223.289C101.88 231.498 94.1658 237.302 84.9656 237.302C75.8361 237.302 68.0512 231.498 65.1496 223.289H50.7122C53.8969 239.212 68.0512 251.244 84.9656 251.244C101.88 251.244 116.034 239.212 119.219 223.289H104.782Z" fill="#979DAC"/>
<path d="M120.312 177.742H104.741V216.06H120.312V177.742Z" fill="#979DAC"/>
<path d="M64.3468 177.742H49.4745V216.06H64.3468V177.742Z" fill="#979DAC"/>
<path d="M245.436 152.466V140.912H229.196V152.466H245.436Z" fill="#979DAC"/>
<path d="M117.359 72.8199C131.046 63.7586 146.168 57.2427 162.218 53.5599C173.109 51.4447 183.955 51.034 194.866 51.9292C201.97 52.6226 209.361 53.8232 216.531 55.8226C231.666 60.0407 245.626 66.9376 257.901 76.7972L276.89 53.3317C261.873 40.9897 244.152 32.1865 225.034 26.8572C216.271 24.4155 206.888 22.6584 197.682 21.8088C184.159 21.0434 170.303 21.4753 156.689 24.1188C136.212 28.2826 117.348 35.9026 100.272 47.8831L117.359 72.8199Z" fill="#979DAC"/>
<path d="M274.995 34.8564L277.802 31.9056C264.388 22.7391 250.28 15.521 235.088 10.1109C219.897 4.69912 204.013 1.23754 188.213 0L187.744 3.78283C203.154 4.88169 218.649 8.20636 233.451 13.4777C248.252 18.7491 262.36 25.9672 274.995 34.8564Z" fill="#979DAC"/>
</svg>
