<svg width="128" height="39" viewBox="0 0 128 39" fill="none" xmlns="http://www.w3.org/2000/svg">
<g id="document">
<path id="Vector" d="M126.5 8.0553C125.726 4.64309 123.207 2.96091 119.775 2.96091H108.752V37.1797H119.775C124.995 37.1797 126.832 32.7763 126.832 27.327V12.0486C126.832 10.5716 126.79 9.43038 126.5 8.0553ZM114.611 32.4198V6.95575H118.518C120.935 6.95575 121.185 9.19657 121.185 12.0486V27.327C121.185 30.179 120.935 32.4198 118.518 32.4198H114.611Z" fill="#001233" stroke="#0466C8" stroke-width="2" stroke-linecap="round" stroke-linejoin="round"/>
<g id="Group">
<path id="Vector_2" d="M99.8807 20.8802L94.737 23.1973C96.1368 24.8124 98.3234 27.5689 98.3234 29.5609C98.3234 31.7682 96.9775 33.0065 95.3085 33.0065C93.5858 33.0065 92.2936 31.8759 92.2936 29.5609V26.0615H85.5101V29.9916C85.5101 35.3753 89.8709 37.8547 95.3085 37.8547C100.692 37.8547 105.268 35.4292 105.268 29.9916C105.268 27.4513 102.573 23.949 99.8807 20.8802Z" fill="#001233" stroke="#0466C8" stroke-width="2" stroke-linecap="round" stroke-linejoin="round"/>
<path id="Vector_3" d="M105.686 11.6684V9.03032C105.686 4.02344 101.648 1 95.941 1C90.1804 1 86.0887 3.91581 86.0887 9.03032C86.0887 14.1988 88.5164 15.552 91.1296 18.5942C95.165 16.9506 94.3767 17.3437 96.9584 16.3494C95.6845 14.6171 94.8104 13.6065 94.8104 13.6065C93.2491 11.8299 92.9261 10.5916 92.9261 8.9765C92.9261 7.25373 94.2182 6.01548 95.941 6.01548C97.5561 6.01548 98.9559 7.46905 98.9559 10.1071V11.6684H105.686Z" fill="#001233" stroke="#0466C8" stroke-width="2" stroke-linecap="round" stroke-linejoin="round"/>
</g>
<path id="Vector_4" d="M28.4621 20.3907L28.5255 20.7266L28.8625 20.7881L30.2511 21.042L28.841 21.3672L28.5265 21.4395L28.463 21.7559L28.2775 22.6758L28.133 21.7754L28.0783 21.4405L27.7472 21.3663L26.2873 21.042L27.7257 20.7891L28.0793 20.7266L28.133 20.3721L28.2775 19.4249L28.4621 20.3907Z" fill="#001233" stroke="#0466C8"/>
<path id="Vector_5" d="M14.2939 3.46091V8.1572H5.28027V17.4648H12.9092V21.0195H5.28027V38.5H0.5V3.46091H14.2939Z" fill="#001233" stroke="#0466C8"/>
<path id="Vector_6" d="M51.944 2.45466C57.9863 2.45472 60.6295 6.5421 60.6295 9.83552V12.0953H55.3053V9.83552C55.3053 9.1696 54.985 8.34367 54.4352 7.68806C53.8748 7.01995 53.0289 6.47423 51.944 6.47419C49.402 6.47419 48.2819 8.56633 48.2819 9.83552V17.7691H43.6598V9.83552C43.6598 8.13136 44.1046 6.29278 45.3307 4.88728C46.5452 3.49526 48.5902 2.45466 51.944 2.45466Z" fill="#001233" stroke="#0466C8"/>
<path id="Vector_7" d="M48.2819 24.3075V31.12C48.2821 32.3892 49.4023 34.4803 51.944 34.4803C53.0289 34.4803 53.8748 33.9346 54.4352 33.2665C54.9849 32.611 55.3052 31.7858 55.3053 31.12V28.8592H60.6295V31.12C60.6293 34.4133 57.9861 38.4998 51.944 38.4999C48.5902 38.4999 46.5452 37.4593 45.3307 36.0672C44.1047 34.6619 43.6599 32.824 43.6598 31.12V24.3075H48.2819Z" fill="#001233" stroke="#0466C8"/>
<path id="Vector_8" d="M69.9048 2.77877V30.3032C69.9051 31.5843 71.0359 33.6956 73.6021 33.6958C74.6991 33.6958 75.5423 33.1431 76.0963 32.4653C76.6396 31.8004 76.9447 30.9685 76.9449 30.3032V13.8471H81.2896V30.353C81.2896 32.08 80.8472 33.9345 79.689 35.3471C78.5455 36.7419 76.6505 37.7719 73.6021 37.7719C70.2362 37.7719 68.213 36.7199 67.0211 35.3149C65.816 33.8943 65.3932 32.034 65.3931 30.3032V2.73678L69.9048 2.77877Z" fill="#001233" stroke="#0466C8"/>
<path id="Vector_9" d="M28.3147 3.46091C33.4952 3.46108 37.861 7.00071 39.0989 11.7763H35.2375C34.1146 9.02407 31.425 7.1074 28.2903 7.1074C25.1322 7.1076 22.4649 9.02506 21.344 11.7763H17.5295C18.7674 7.00056 23.134 3.46091 28.3147 3.46091Z" fill="#001233" stroke="#0466C8"/>
<path id="Vector_10" d="M21.3665 30.1843C22.4892 32.9369 25.1798 34.8542 28.3147 34.8542C31.4729 34.8541 34.1401 32.9357 35.261 30.1843H39.0989C37.8611 34.9601 33.4953 38.4995 28.3147 38.4997C23.1339 38.4997 18.7673 34.9602 17.5295 30.1843H21.3665Z" fill="#001233" stroke="#0466C8"/>
<path id="Vector_11" d="M39.5929 15.0063V26.7748H35.4044V15.0063H39.5929Z" fill="#001233" stroke="#0466C8"/>
<path id="Vector_12" d="M20.9433 15.0063V26.7748H16.9873V15.0063H20.9433Z" fill="#001233" stroke="#0466C8"/>
<path id="Vector_13" d="M81.2902 2.73287V5.58346H76.8781V2.73287H81.2902Z" fill="#001233" stroke="#0466C8"/>
</g>
</svg>
