<?xml version="1.0" encoding="utf-8" ?>	<!-- Generator: Assembly 2.4 - http://assemblyapp.co -->	<svg version="1.1" xmlns="http://www.w3.org/2000/svg" xmlns:xlink="http://www.w3.org/1999/xlink" width="4096.00" height="2341.00" viewBox="0 0 4096.0 2341.0">		<g id="document" transform="scale(1.0 1.0) translate(2051.0870712401056 1170.2857142857142)">			<path d="M1117.51,-224.513 C1104.29,-282.845 1061.22,-311.602 1002.55,-311.602 L814.115,-311.602 L814.115,273.371 L1002.55,273.371 C1091.79,273.371 1123.19,198.095 1123.19,104.938 L1123.19,-156.248 C1123.19,-181.496 1122.47,-201.006 1117.51,-224.513 Z M914.273,192.001 L914.273,-243.31 L981.062,-243.31 C1022.38,-243.31 1026.66,-205.003 1026.66,-156.248 L1026.66,104.938 C1026.66,153.693 1022.38,192.001 981.062,192.001 L914.273,192.001 Z " fill="#001233" fill-opacity="1.00" stroke-width="12.47" stroke="#0466c8" stroke-linecap="round" stroke-linejoin="round" />			<g>				<path d="M662.459,-5.26977 L574.527,34.3404 C598.456,61.9511 635.837,109.074 635.837,143.127 C635.837,180.861 612.828,202.03 584.297,202.03 C554.846,202.03 532.757,182.702 532.757,143.127 L532.757,83.3036 L416.792,83.3036 L416.792,150.49 C416.792,242.525 491.341,284.911 584.297,284.911 C676.333,284.911 754.563,243.446 754.563,150.49 C754.563,107.063 708.476,47.1905 662.459,-5.26977 Z " fill="#001233" fill-opacity="1.00" stroke-width="14.26" stroke="#0466c8" stroke-linecap="round" stroke-linejoin="round" />				<path d="M761.694,-162.747 L761.694,-207.845 C761.694,-293.438 692.667,-345.124 595.109,-345.124 C496.631,-345.124 426.684,-295.278 426.684,-207.845 C426.684,-119.49 468.185,-96.3564 512.857,-44.3494 C581.843,-72.447 568.367,-65.7272 612.501,-82.724 C590.725,-112.338 575.782,-129.614 575.782,-129.614 C549.091,-159.986 543.569,-181.154 543.569,-208.765 C543.569,-238.216 565.658,-259.384 595.109,-259.384 C622.72,-259.384 646.649,-234.535 646.649,-189.437 L646.649,-162.747 L761.694,-162.747 Z " fill="#001233" fill-opacity="1.00" stroke-width="14.26" stroke="#0466c8" stroke-linecap="round" stroke-linejoin="round" />			</g>			<path d="M-562.52,-80.5667 L-572.521,-15.2466 L-639.433,-3.45969 L-572.521,11.39 L-562.52,73.4541 L-550.058,11.39 L-485.606,-3.45969 L-550.058,-15.2466 L-562.52,-80.5667 Z " fill="#001233" fill-opacity="1.00" />			<path d="M-792.112,-214.226 L-792.112,-311.602 L-1045.01,-311.602 L-1045.01,304.489 L-946.199,304.489 L-946.199,5.66159 L-815.772,5.66159 L-815.772,-72.2064 L-946.199,-72.2064 L-946.199,-214.226 L-792.112,-214.226 Z " fill="#001233" fill-opacity="1.00" />			<path d="M8.52651e-14,-146.894 L8.52651e-14,-194.088 C8.52651e-14,-255.01 -48.9097,-328.804 -157.026,-328.804 C-275.439,-328.804 -307.19,-255.01 -307.19,-194.088 L-307.19,-49.9105 L-211.084,-49.9105 L-211.084,-194.088 C-211.084,-212.107 -194.781,-242.997 -157.026,-242.997 C-126.136,-242.997 -108.116,-212.107 -108.116,-194.088 L-108.116,-146.894 L8.52651e-14,-146.894 Z " fill="#001233" fill-opacity="1.00" />			<path d="M3.97904e-13,122.579 L3.69482e-13,169.773 C3.69482e-13,230.695 -48.9097,304.489 -157.026,304.489 C-275.439,304.489 -307.19,230.695 -307.19,169.773 L-307.19,44.7718 L-211.084,44.7718 L-211.084,169.773 C-211.084,187.792 -194.781,218.682 -157.026,218.682 C-126.136,218.682 -108.116,187.792 -108.116,169.773 L-108.116,122.579 L3.97904e-13,122.579 Z " fill="#001233" fill-opacity="1.00" />			<path d="M261.823,-134.053 L261.823,155.808 C261.823,174.031 244.468,205.269 213.23,205.269 C175.05,205.269 158.563,174.031 158.563,155.808 L158.563,-323.18 L64.3432,-324.048 L64.3432,155.808 C64.3432,217.417 94.3503,292.042 213.23,292.042 C321.696,292.042 353.193,218.285 353.193,156.676 L353.193,-134.053 L261.823,-134.053 Z " fill="#001233" fill-opacity="1.00" />			<path d="M-674.265,-152.349 C-657.735,-199.117 -613.79,-232.177 -561.377,-232.177 C-509.368,-232.177 -465.019,-199.117 -448.489,-152.349 L-365.839,-152.349 C-383.982,-243.062 -464.616,-311.602 -560.974,-311.602 C-657.332,-311.602 -737.966,-243.062 -756.109,-152.349 L-674.265,-152.349 Z " fill="#001233" fill-opacity="1.00" />			<path d="M-448.086,145.236 C-464.616,192.004 -508.562,225.064 -560.974,225.064 C-612.983,225.064 -657.332,192.004 -673.862,145.236 L-756.109,145.236 C-737.966,235.95 -657.332,304.489 -560.974,304.489 C-464.616,304.489 -383.982,235.95 -365.839,145.236 L-448.086,145.236 Z " fill="#001233" fill-opacity="1.00" />			<path d="M-359.611,-114.233 L-448.316,-114.233 L-448.316,104.054 L-359.611,104.054 L-359.611,-114.233 Z " fill="#001233" fill-opacity="1.00" />			<path d="M-678.434,-114.233 L-763.159,-114.233 L-763.159,104.054 L-678.434,104.054 L-678.434,-114.233 Z " fill="#001233" fill-opacity="1.00" />			<path d="M353.193,-258.228 L353.193,-324.048 L260.679,-324.048 L260.679,-258.228 L353.193,-258.228 Z " fill="#001233" fill-opacity="1.00" />		</g>	</svg>