<svg width="414" height="609" viewBox="0 0 414 609" fill="none" xmlns="http://www.w3.org/2000/svg">
<path d="M405.09 589.921C407.554 607.379 398.42 608.849 386.571 608.814C292.221 608.54 197.871 608.713 103.522 608.364C94.8669 608.332 82.4923 613.28 81.6451 596.08C80.8587 580.115 89.3684 566.991 103.166 565.13C110.786 564.102 118.608 564.604 126.337 564.662C134.217 564.721 140.378 564.006 145.737 555.308C153.216 543.168 210.823 545.616 218.422 557.916C222.412 564.374 227.103 564.616 232.761 564.614C263.18 564.601 293.601 564.326 324.016 564.638C333.343 564.734 337.755 561.724 339.137 551.14C345.601 501.61 352.804 452.187 359.838 402.741C360.856 395.583 358.192 390.461 353.824 385.176C342.841 371.887 341.242 356.757 349.102 341.252C352.367 334.81 352.537 329.359 349.983 322.775C333.363 279.931 316.963 236.991 300.558 194.053C297.927 187.167 294.455 182.081 286.809 180.201C276.763 177.73 271.226 168.142 263.895 161.43C258.95 156.903 255.404 150.436 248.916 148.701C241.842 151.728 241.751 158.335 240.203 163.899C228.146 207.239 216.182 250.607 204.208 293.972C199.238 311.972 194.591 314.597 178.761 305.978C153.356 292.145 131.59 272.839 110.53 252.708C76.0581 219.757 43.097 185.284 16.2314 144.88C13.5664 140.872 10.9844 136.776 8.68176 132.529C-4.10094 108.95 -2.27418 104.489 22.6154 96.3728C58.0461 84.8192 93.1001 71.7679 128.944 61.9146C150.195 56.0727 165.184 42.1756 176.57 25.2415C190.646 4.30665 211.873 6.82978 230.519 0.686983C235.715 -1.02483 239.98 4.09772 243.689 7.93027C257.698 22.4088 271.654 36.9465 285.646 51.4443C291.984 58.0121 292.522 64.2486 290.943 74.4056C288.41 90.6965 281.393 109.798 300.24 123.297C313.541 132.825 321.801 146.256 319.205 165.064C318.534 169.926 321.363 175.566 323.274 180.553C339.525 222.966 356.102 265.24 372.167 307.731C375.651 316.946 380.381 322.622 389.776 326.113C412.939 334.72 422.01 369.95 402.864 384.122C384.305 397.86 383.755 415.991 381.048 434.718C375.687 471.807 371.39 509.068 366.058 546.162C364.323 558.231 366.053 564.984 379.481 564.845C394.024 564.694 401.812 574.187 405.09 589.921ZM133.34 208.933C119.002 193.54 105.056 177.685 88.8756 164.351C77.4155 179.057 77.5932 197.231 88.2638 211.556C99.036 226.017 118.961 232.04 132.645 225.497C141.226 221.394 139.983 216.483 133.34 208.933Z" fill="#C9C9C9"/>
</svg>
